<?xml version="1.0" encoding="utf-8"?>
<!-- Generator: Adobe Illustrator 15.0.2, SVG Export Plug-In . SVG Version: 6.00 Build 0)  -->
<!DOCTYPE svg PUBLIC "-//W3C//DTD SVG 1.1//EN" "http://www.w3.org/Graphics/SVG/1.1/DTD/svg11.dtd">
<svg version="1.1" id="Layer_1" xmlns="http://www.w3.org/2000/svg" xmlns:xlink="http://www.w3.org/1999/xlink" x="0px" y="0px"
	 width="46px" height="100px" viewBox="0 0 46 100" enable-background="new 0 0 46 100" xml:space="preserve">
<path fill-rule="evenodd" clip-rule="evenodd" fill="#CC8800" d="M45.755,95.826c-1.167,0.215-1.846,1.938-3.227,1.025
	c-0.095,2.795-1.223,4.319-2.933,2.053c-0.526,0.208-0.759,0.708-1.32,0.881c-0.978-0.586-1.327-1.802-1.76-2.935
	c-0.284,0.205-0.218,0.759-0.439,1.028c-0.896-0.522-1.698-1.138-2.2-2.053c-0.401,0.234-0.164,1.106-0.44,1.465
	c-0.471-0.032-0.62,0.261-1.173,0.149c-2.161-5.271-6.025-16.194-6.012-16.426c-2.062-1.36-4.716-2.126-6.599-3.667
	c-0.278,0.457-3.718,5.747-5.26,8.118c0.457,0.037,2.198,0.259,2.407,0.144c2.395-1.294,5.185-2.935,6.683-3.362
	c0.842,0.081,1.49,0.322,1.888,0.527c0.007,0.613-13.041,7.798-18.908,10.964c-0.283,0.154-0.89-0.056-1.265-0.161
	c-1.339-0.662,4.149-3.833,6.682-5.671c1.378-4.341,3.78-7.656,5.132-12.024c-1.737-0.889-3.181-2.144-4.692-3.374
	C5.424,66.897,0.061,56.895,0,44.94c-0.034-6.863,0.82-11.194,2.934-16.572c0.378-0.964,3.187-6.248,3.519-8.066
	c0.646-3.535-1.367-5.398-1.029-9.275c0.389-4.46,3.325-8.14,5.575-9.495c3.433-2.07,9.037-1.863,11.878-0.439
	c2.905,1.453,3.301,3.767,4.68,5.132c0.818,0.811,2.649,1.321,3.744,1.631c0.825,0.232,2.407,0.85,3.282,2.041
	c-1.263,1.023-3.221,1.541-4.814,1.753c-0.67,0.09-1.565,0.347-2.018,0.63c-1.143,0.974-1.53,2.351-2.371,4.243
	c-1.477,3.325-1.245,6.272,0.431,8.083c2.383,2.578,6.259,6.03,7.624,9.041c3.24,7.148,2.834,12.368,2.933,14.665
	C36.515,51.7,35.8,62.356,33.143,68.99c-0.583,1.455-1.57,3.743-0.734,5.278c0.165,0.3,2.619,3.638,3.667,5.132
	c1.693,2.415,3.28,4.736,4.692,7.48c1.03,2.002,2.043,3.889,3.52,5.718C45.22,93.755,45.983,93.724,45.755,95.826z"/>
</svg>
