<?xml version="1.0" encoding="utf-8"?>
<!-- Generator: Adobe Illustrator 15.0.2, SVG Export Plug-In . SVG Version: 6.00 Build 0)  -->
<!DOCTYPE svg PUBLIC "-//W3C//DTD SVG 1.1//EN" "http://www.w3.org/Graphics/SVG/1.1/DTD/svg11.dtd">
<svg version="1.1" id="Layer_1" xmlns="http://www.w3.org/2000/svg" xmlns:xlink="http://www.w3.org/1999/xlink" x="0px" y="0px"
	 width="100px" height="218px" viewBox="0 0 100 218" enable-background="new 0 0 100 218" xml:space="preserve">
<g>
	<g>
		<path fill-rule="evenodd" clip-rule="evenodd" d="M99.911,208.806c-2.542,0.47-4.024,4.227-7.035,2.238
			c-0.208,6.094-2.666,9.415-6.396,4.477c-1.147,0.452-1.656,1.542-2.878,1.919c-2.133-1.277-2.894-3.928-3.837-6.396
			c-0.62,0.446-0.477,1.655-0.959,2.238c-1.954-1.138-3.702-2.481-4.796-4.477c-0.876,0.51-0.357,2.414-0.959,3.197
			c-1.03-0.07-1.353,0.565-2.558,0.319c-4.713-11.488-7.88-24.523-13.75-34.854c-0.176-0.71,0.61-0.455,0.64-0.96
			c-4.497-2.965-10.283-4.64-14.39-7.994c-0.605,0.993-0.605,0.993-0.959,1.599c-2.45,5.013-8.151,9.544-11.512,14.71
			c2.834,0.236,5.68,1.865,7.674,0.959c4.315-1.959,9.684-4.959,14.71-6.396c0.208,1.623,0.807,0.88,2.559,0.96
			c0.021,1.756-1.51,1.153-2.559,1.599c-3.482,1.479-8.108,3.37-10.872,4.797c-0.467,0.24,0.253,0.542-0.32,0.96
			c-1.596,1.16-3.346,0.824-3.518,3.517c-1.229,0.079-0.61-2.747-0.32-3.197c-1.639-2.093-6.565-0.896-8.953-2.239
			c-0.91,1.969-1.333,4.423-2.878,5.757c3.005-9.466,8.246-16.697,11.192-26.222c-3.79-1.937-7.224-4.356-10.233-7.355
			c-2.553-2.545-6.406-6.175-8.314-10.233c-0.948-2.016-1.237-4.256-2.238-6.395c-0.873-1.865-1.898-3.805-2.878-5.756
			c-2.07-4.125-3.222-8.639-5.117-12.152c-0.638-1.183-2.751-7.02-3.517-8.954c-0.333-0.838-2.135-5.724-2.558-7.355
			c-0.844-3.252-1.909-5.533-2.239-9.273c-0.421-4.78,0.196-9.789,0.64-14.07c0.835-8.062,3.165-15.304,5.756-22.064
			c0.81-2.112,1.109-4.415,1.918-6.396c1.56-3.816,5.032-7.228,5.756-11.192c1.408-7.709-4.649-11.097-3.518-19.506
			c1.089-8.089,7.515-17.324,13.43-21.425c4.744-3.289,20.072-4.704,25.902-0.959c3.799,2.439,7.544,6.617,10.553,9.593
			c1.785,1.766,1.61,2.607,2.38,3.002c1.777,0.911,6.739,2.444,7.917,3.054c1.467,0.761,3.667,2.055,4.675,3.537
			c-2.58,1.599-4.949,2.934-7.035,3.198c-1.463,0.185-5.89,1.018-7.635,1.909c-2.488,2.365-2.084,6.331-3.5,9.923
			c-1.366,3.464-4.952,7.824-2.878,12.791c1.79,4.287,5.814,6.812,9.273,9.913c2.934,2.629,4.331,5.695,6.396,9.593
			c0.835,1.577,2.317,3.149,2.878,4.477c1.927,4.567,1.848,9.782,3.837,15.029c0.987-0.347,2.314,11.289,2.558,16.948
			c0.318,7.387-0.614,14.246-1.919,21.105c-1.063,5.594-2.086,10.561-3.517,14.71c-0.96,2.783-0.827,6.228-1.599,9.273
			c-0.841,3.318-3.423,8.162-1.599,11.513c0.358,0.657,1.754,1.306,2.238,1.919c1.876,2.376,3.469,6.015,5.756,9.272
			c3.692,5.262,7.153,10.329,10.233,16.31c2.248,4.364,4.456,8.481,7.674,12.471C98.747,204.292,100.409,204.223,99.911,208.806z"/>
		<path fill-rule="evenodd" clip-rule="evenodd" d="M35.956,191.858c-0.792,0.309,0.441,1.228,0,2.238
			c-2.349-2.131-4.067,3.222-6.396,4.157c-1.3,0.128-0.984-1.361-1.918-1.599c-1.447,2.213-5.073,2.153-7.995,3.197
			c-1.693,0.605-3.232,2.821-4.157,2.878c0.31-0.019-1.242-0.834-0.959-0.959c-1.75,0.775-1.875,3.543-3.837,2.878
			c2.232-2.716,4.472-3.7,7.675-6.715c0.842-0.794,1.592-2.198,2.558-2.878c3.831-2.697,9.087-2.867,10.553-7.035
			c1.321,1.31,2.422-0.815,4.796-0.319c0.644,1.381,0.574,3.477,1.279,4.796C37.077,193.004,35.731,192.965,35.956,191.858z"/>
	</g>
	<g>
		<g>
			<path fill-rule="evenodd" clip-rule="evenodd" fill="#FFFFFF" d="M58.979,20.458c0.832,1.193,1.474,2.69,2.245,3.944
				c-2.161,2.497-3.259,4.207-4.483,7.568c-2.313-0.635-1.215-4.123-3.198-4.477c-2.629-0.47-2.171,4.083-5.116,4.797
				c0.011-4.093,0.837-6.983-2.558-7.036c-1.206-0.018-1.893,1.815-3.518,1.919c-2.773,0.177-5.054-2.874-4.477-5.756
				c0.317-1.583,1.979-1.75,3.198-2.878c2.029-1.878,3.919-4.859,5.436-7.035c6.332-3.007,14.296-1.711,14.07,5.436
				C60.53,18.483,60.008,19.337,58.979,20.458z"/>
			<path fill-rule="evenodd" clip-rule="evenodd" fill="#FFFFFF" d="M62.525,16.471c3.023,0.956,7.988,2.217,8.464,3.764
				c-1.878,0.684-6.15-0.512-9.452-0.416C61.782,18.944,62.591,17.733,62.525,16.471z"/>
			<path fill-rule="evenodd" clip-rule="evenodd" fill="#FFFFFF" d="M61.461,21.011c2.527,1.07,6.172,0.443,10.005,0.85
				c-2.28,1.078-6.451,1.872-8.407,2.348C62.269,23.4,61.466,22.604,61.461,21.011z"/>
		</g>
		<g>
			<path fill-rule="evenodd" clip-rule="evenodd" fill="#FFFFFF" d="M60.259,147.089c-6.831,0.623-9.837-5.399-14.39-8.314
				c-4.494-2.878-8.954-5.144-13.111-8.314c1.394,2.898,5.184,3.91,7.995,6.076c3.932,3.029,6.542,7.991,10.232,10.872
				c0.48,0.375,1.082,0,1.599,0.32c3.125,1.931,5.971,4.862,8.634,7.355c-0.681,0.811-2.048,0.936-1.918,2.558
				c-10.568-8.978-21.155-20.492-29.739-29.419c1.007-0.773,2.031,0.573,3.198,0.639c1.427-1.451,1.3-4.456,2.558-6.075
				c6.675,6.542,12.965,13.47,20.146,19.506C55.516,143.641,58.464,145.366,60.259,147.089z"/>
			<path fill-rule="evenodd" clip-rule="evenodd" fill="#FFFFFF" d="M30.52,130.461c8.387,9.82,18.147,18.367,27.181,27.821
				c0.471,0.492,1.622,0.292,1.279,1.599c-2.258-0.545-2.207-2.27-1.599,0.96c-3.913,1.254-4.641-2.6-6.396-4.477
				c-2.216-0.324-3.935-1.98-6.075-3.519c-9.564-6.872-14.951-19.355-23.983-26.861c1.082-0.174,1.822-3.032,2.238-2.238
				C26.384,124.898,30.697,130.462,30.52,130.461z"/>
			<path fill-rule="evenodd" clip-rule="evenodd" fill="#FFFFFF" d="M21.885,129.501c3.146,1.518,4.557,5.134,6.716,7.995
				c1.646,2.18,4.061,3.695,5.756,5.756c0.983,1.195,1.394,2.766,2.238,3.837c2.021,2.563,4.926,5.091,7.675,7.035
				c2.2,1.557,4.802,3.316,6.395,6.077c-6.817-1.038-9.725-4.729-13.43-9.274c-2.126-2.606-4.713-4.562-6.715-7.035
				c-1.916-2.366-5.069-4.576-7.995-5.756c-0.081,1.754,0.684,2.168,0.959,4.157c-2.157-0.828-2.081-3.888-3.837-5.116
				c0.895-1.326,1.757,0.065,2.878-0.64C21.724,134.016,22.895,131.316,21.885,129.501z"/>
			<path fill-rule="evenodd" clip-rule="evenodd" fill="#FFFFFF" d="M41.072,87.931c1.568,4.066,4.374,8.027,6.715,1.918
				c5.071,3.098,2.862,11.826,2.559,18.227c-4.301-4.439-7.255-10.226-11.192-15.029C40.661,92.21,39.994,89.197,41.072,87.931z"/>
			<path fill-rule="evenodd" clip-rule="evenodd" fill="#FFFFFF" d="M52.264,103.6c1.331,0.481,1.644,1.98,2.878,2.558
				c1.236,0.165,1.262-1.842,2.239-0.959c0.556,3.36-0.968,7.323-1.599,10.552C52.914,112.863,49.986,109.173,52.264,103.6z"/>
			<path fill-rule="evenodd" clip-rule="evenodd" fill="#FFFFFF" d="M46.828,105.838c7.063,8.499,13.188,17.937,18.227,28.46
				c-7.466-0.712-11.758-10.475-17.268-15.029c-1.606-1.329-5.404-2.628-5.755-4.157C41.427,112.484,45.249,107.118,46.828,105.838z
				"/>
			<path fill-rule="evenodd" clip-rule="evenodd" fill="#FFFFFF" d="M35.956,110.315c7.136,7.787,15.958,13.889,22.384,22.385
				c-2.996,0.506-5.669-5.489-9.273-6.716c0.108,10.019,9.667,13.357,13.75,20.466c-4.713-4.765-11.091-9.174-15.989-14.39
				c-2.617-2.787-4.708-5.192-7.675-7.675c-2.629-2.2-5.291-4.94-7.035-7.995c0.993,0.033,0.913-1.006,2.239-0.64
				C34.018,113.067,35.174,111.879,35.956,110.315z"/>
			<path fill-rule="evenodd" clip-rule="evenodd" fill="#FFFFFF" d="M57.701,111.274c1.215-0.256,0.406,1.512,0.639,2.238
				c2.359,0.598,3.088-3.204,6.076-1.279c-1.142,3.974-2.815,7.417-3.198,12.151C57.852,121.039,56.112,117.527,57.701,111.274z"/>
			<path fill-rule="evenodd" clip-rule="evenodd" fill="#FFFFFF" d="M62.177,139.415c-0.6,0.36-0.679,1.239-1.279,1.599
				c-4.399-3.276-7.804-7.546-10.233-12.791c1.83,2.735,6.491,4.967,8.954,7.675c1.13,1.242,1.7,1.734,2.878,1.918
				c-0.608,1.061-0.323,1.298-0.061,1.463c1.052-0.76,1.353-2.191,2.103-3.253c-0.43-0.914-0.94,0.722-1.722,0.511
				c-0.309-0.864-0.896-1.449-1.599-1.918c1.472-0.928,2.869,0.96,5.117,0.32c-0.904-4.571,2.284-8.845,3.837-13.75
				c0.587-1.855,1.406-6.445,1.599-7.675c0.909,1.117,1.512,2.539,3.837,2.238c-0.682,11.393-5.643,21.197-9.273,30.699
				c-2.426-0.666-3.096-3.086-5.117-4.157C61.727,140.927,62.455,140.816,62.177,139.415z"/>
			<path fill-rule="evenodd" clip-rule="evenodd" fill="#FFFFFF" d="M64.096,117.35c0.66-0.43-0.06,3.245,0.959,3.518
				c1.293-0.413,2.246-1.165,2.878-2.238c2.966,3.442-2.324,7.845-2.238,12.471C61.595,128.232,61.286,122.041,64.096,117.35z"/>
			<path fill-rule="evenodd" clip-rule="evenodd" fill="#FFFFFF" d="M72.73,76.739c5.435,14.852,7.209,33.003,3.518,50.844
				c-2.163,10.451-4.993,21.382-8.314,31.338c-0.974,0.12-0.543-1.163-1.279-1.279c-1.781,0.989-2.017,3.526-2.878,5.437
				c-0.781-1.875,2.228-6.522-0.639-7.675c3.521-8.131,8.833-18.536,11.512-27.821c0.417-1.448,0.242-3.153,0.64-4.477
				c0.826-2.748,3.243-6.768,0-9.273c-1.153-0.891-2.546-0.07-2.878-1.279c-0.072-1.207,0.335-2.894-0.64-3.197
				c-1.328,2.296-1.111,6.137-2.239,8.633c-0.973,0.015-1.243-0.675-1.918-0.959c-0.504,0.561-1.468,0.664-1.599,1.599
				c-2.558-3.393,1.488-11.308,1.279-14.39c-1.69,1.613-1.666,4.942-3.198,6.715c-0.73,0.636-1.615-0.511-2.238-0.959
				c-1.474,0.125-1.506,1.691-2.878,1.919c-0.006-1.913-1.062-2.776-0.64-5.116c0.372-0.269,0.857-0.422,1.599-0.32
				c-1.374-4.183-5.842-1.661-7.995-4.477c0.544-2.761,0.249-6.36,0.32-9.593c2.201-0.251,2.917-1.987,3.837-3.518
				c4.905,1.97,5.216,1.62,6.715-3.518c1-3.426,2.821-5.679,4.796-7.035c1.713,0.879,2.451,0.256,4.477,0
				C72.565,78.067,72.553,77.308,72.73,76.739z"/>
			<path fill-rule="evenodd" clip-rule="evenodd" fill="#FFFFFF" d="M15.17,128.542c0.249,0.285-0.727-0.348-0.64-0.319
				c-1.386-0.453-5.918-8.365-6.396-9.273c-1.823-3.475-2.821-5.962-3.517-9.274c0.031,0.145-0.701-0.913-0.959-2.558
				c-0.645-4.106,0.548-9.292,3.198-11.512c1.044,2.657,3.646,10.277,6.396,4.477c2.13,0.544,2.321,2.93,4.477,2.239
				c2.118-0.679,1.384-5.275,3.198-6.715c7.813,0.583,4.478-14.203,8.954-17.268c3.147-2.155,4.403,6.288,5.756,9.274
				c0.521,1.15,1.491,2.157,1.918,3.198c0.183,0.442-0.219,1.176,0,1.599c2.73,5.262,7.069,7.752,8.954,12.791
				c-3.594,0.99-3.931,5.236-5.756,7.994c-2.28-2.09-4.323-4.418-5.756-7.354c-1.511,0.578,0.673,1.217,0,2.878
				c-0.967,1.058-1.66,2.391-1.279,4.796c-1.001-0.148-1.427,0.278-1.279,1.279c-3.903,0.249-4.007-4.543-6.715-4.477
				c2.014,4.275,5.348,7.229,7.994,10.873c-0.75,1.808-0.929,4.188-1.279,6.396c-1.721-0.411-2.233-2.031-3.837-2.558
				c-0.612,0.134-1.376,0.116-1.279,0.959c-1.927-1.27-2.319-4.076-5.117-4.477c-0.752,0.633-0.544,2.227-0.959,3.198
				c-2.264-1.466-4.235-3.226-5.755-5.436c-0.123,2.643,4.142,5.964,6.075,8.634c-1.032,1.068-0.227,6.089-0.639,7.675
				C17.489,134.751,17.208,130.769,15.17,128.542z"/>
			<path fill-rule="evenodd" clip-rule="evenodd" fill="#FFFFFF" d="M47.148,141.653c4.811,3.823,9.49,7.778,16.309,9.593
				c-0.193,1.193-1.203,1.569-1.279,2.878C57.588,149.546,50.827,147.141,47.148,141.653z"/>
			<path fill-rule="evenodd" clip-rule="evenodd" fill="#FFFFFF" d="M62.817,157.322c0.812,2.628-1.031,5.361-0.64,8.634
				c2.435-1.083,2.673-4.362,4.157-6.396c0.36,0.902,1.408,0.622,2.238,0.319c0.146,4.007-0.988,8.359-3.518,8.634
				c-0.42,1.498-0.604,3.233-2.878,2.878C61.417,166.521,58.489,160.221,62.817,157.322z"/>
			<path fill-rule="evenodd" clip-rule="evenodd" fill="#FFFFFF" d="M58.021,160.84c1.18,4.916,2.667,8.883,3.517,13.43
				c0.806-0.686,2.19-0.794,2.558-1.919c1.265,0.479,1.882,1.306,3.518,0.64c1.645,3.798,5.671,8.627,7.995,14.391
				c1.37,3.396,4.612,7.002,5.116,9.273c0.963,4.332-3.138,5.47-6.396,6.715c-2.771-6.871-4.513-13.36-7.994-19.507
				c-0.766-1.351-1.916-3.382-3.198-5.116c-1.606-2.172-2.691-2.886-3.198-6.075c-2.392-1.126-4.832-2.203-5.756-4.797
				c1.493,0,2.985,0,4.477,0c-0.049-3.042-2.563-3.619-3.518-5.756C56.484,162.075,57.33,161.536,58.021,160.84z"/>
			<path fill-rule="evenodd" clip-rule="evenodd" fill="#FFFFFF" d="M89.039,194.096c1.292,1.86,2.896,2.611,3.198,4.797
				c-0.816-0.755-0.928-1.176-1.656-2.009c-0.375,2.655,2.911,3.175,3.895,5.526c-1.53,2.514-4.022,4.981-6.396,4.157
				c-2.324-0.808-3.082-4.003-5.117-5.756c-0.273-1.021,0.503-0.989,0.64-1.6c-3.422-6.73-8.227-14.486-12.471-21.105
				c-2.976-4.639-3.667-8.715-1.6-15.668c1.69,2.082,2.323,4.112,3.518,7.034c4.077,9.969,11.638,17.619,16.309,27.182
				C90.903,196.043,88.886,195.237,89.039,194.096z"/>
			<path fill-rule="evenodd" clip-rule="evenodd" fill="#FFFFFF" d="M75.608,170.433C80.191,175.869,83.081,183,86.8,189.3
				C83.265,185.195,78.502,177.261,75.608,170.433z"/>
			<path fill-rule="evenodd" clip-rule="evenodd" fill="#FFFFFF" d="M58.66,178.747c1.368,0.597,0.82-0.474,1.599-1.918
				c3.755,4.03,8.359,12.303,10.553,19.187c1.118,3.51,0.87,10.093,6.715,8.953c0,2.025,0,4.052,0,6.076
				c-1.954-0.818-2.418-3.124-4.477-3.838c-0.986,0.934-0.714,3.124-2.238,3.518C67.486,201.834,63.053,188.684,58.66,178.747z"/>
			<path fill-rule="evenodd" clip-rule="evenodd" fill="#FFFFFF" d="M81.684,202.411c0.67,0.941,1.799,1.438,2.558,2.558
				c1.026,1.516,1.379,4.028,2.878,4.478c4.332,1.298,6.926-3.916,9.913-5.756c3.958,2.837-1.671,8.677-4.157,5.116
				c-1.958,1.24-1.87,4.526-2.239,7.355c-2.49,0.251-2.85-1.627-4.477-2.239c-1.495,0.104-1.384,1.813-2.878,1.919
				c-2.073-3.044-2.375-7.858-3.517-11.832C80.603,203.674,81.095,202.995,81.684,202.411z"/>
		</g>
		<g>
			<path fill-rule="evenodd" clip-rule="evenodd" fill="#FFFFFF" d="M50.985,181.305c-3.301,2.562-8.537,4.893-12.151,6.076
				c-0.818-1.402,1.078-1.38,1.919-1.919C43.438,183.742,46.883,181.925,50.985,181.305z"/>
			<path fill-rule="evenodd" clip-rule="evenodd" fill="#FFFFFF" d="M14.851,201.771c5.583-6.108,12.983-9.964,20.785-13.11
				c0.495,0.465,0.282,1.637,0.32,2.558c-0.651-0.642-0.852-0.083-1.279,0.32c-1.02,0.274-0.989-0.504-1.599-0.64
				c-2.549,2.606-4.927,5.23-7.354,6.715C22.614,199.514,18.439,199.065,14.851,201.771z"/>
		</g>
		<g>
			<path fill-rule="evenodd" clip-rule="evenodd" fill="#FFFFFF" d="M33.717,192.498c-1.014,1.544-2.382,2.734-3.518,4.157
				C28.976,195.255,32.445,193.484,33.717,192.498z"/>
			<path fill-rule="evenodd" clip-rule="evenodd" fill="#FFFFFF" d="M31.798,180.346c0.945-4.812,4.836-9.446,6.396-14.71
				c0.969,0.63,1.909,1.288,2.878,1.919C38.456,172.048,36.162,175.901,31.798,180.346z"/>
		</g>
		<g>
			<path fill-rule="evenodd" clip-rule="evenodd" fill="#FFFFFF" d="M47.148,26.854c0.865,3.048-1.695,6.839,1.279,7.354
				c3.022,0.524,2.339-4.343,5.116-5.436c-1.115,2.634,0.284,6.618,2.878,4.477c0.129,1.733-2.605,3.361-3.198,5.436
				c-2.836-0.713-3.832,2.162-5.436,3.198c-1.118,0.722-2.915,0.4-4.157,1.279c-2.522,1.785-3.379,11.285-6.715,4.797
				c-2.04-0.42-2.821,1.085-4.157,0.959c-3.265-0.308-4.74-5.204-6.715-5.436c-4.072-0.478-4.277,6.267-8.634,6.715
				c0.13-1.729-0.322-2.876-1.279-3.518c-1.463-0.311-2.695,2.145-3.517,3.518c0.015-2.268,2.832-4.733,3.198-7.035
				c0.698-4.391-1.977-7.443-2.239-12.151c-0.161-2.894-0.059-6.848,0.959-9.913c1.56-4.698,4.646-8.463,7.035-12.152
				c0.991-1.53,1.021-3.124,2.239-4.157c0.422-0.358,3.98-2.329,4.797-2.558c2.733-0.768,8.439-0.528,11.192-0.64
				c7.088-0.288,12.22,2.694,15.669,7.354c-4.072-0.659-8.12-0.11-10.873,3.198c-0.865,1.039-1.11,2.568-1.919,3.518
				c-1.616,1.898-4.054,2.974-5.436,4.477c-0.157,0.171-1.546,1.452-1.599,2.238c-0.123,1.847,3.513,6.665,6.076,6.716
				C43.988,29.138,44.345,25.947,47.148,26.854z"/>
			<path fill-rule="evenodd" clip-rule="evenodd" fill="#FFFFFF" d="M52.628,40.506c0.709,0.834-0.462,2.027-0.364,3.296
				c0.823,6.052,3.276,11.553,6.715,14.71c1.768,1.623,5.501,2.638,7.355,4.796c0.841,0.979,1.529,3.478,2.558,5.436
				c1.117,2.125,3.372,4.67,1.599,8.314c-6.979-1.267-8.037,5.987-9.274,11.512c-1.887,0.182-2.785-0.625-3.837-1.279
				c-3.072,1.086-3.017,3.494-6.076,3.198c-1.64-0.159-2.274-2.1-3.837-1.919c-1.833,0.213-1.227,2.323-3.198,2.558
				c-0.847-2.031-0.816-4.94-4.157-4.477c-1.029,0.357-0.25,2.521-1.279,2.878c-2.359-3.109-3.321-16.412-9.273-12.151
				c-3.701,2.648-4.092,11.139-5.437,16.628c-5.588-1.444-4.638,2.856-6.715,6.715c-1.283-0.636-1.659-2.179-2.878-2.878
				c-2.142,0.31-1.943,2.96-4.477,2.878c-0.222-2.977-1.327-5.069-2.878-6.715c-3.338,2.111-4.177,4.762-4.157,10.233
				c-1.96-3.634-2.436-9.87-1.918-15.989c1.353-16.019,6.6-32.189,14.71-40.292c0.674,8.638,7.149-0.042,8.953-2.558
				c3.947,1.43,6.535,6.745,11.832,4.796c3.223,5.224,6.007-2.813,7.355-5.436c3.22,0.694,3.695-2.444,5.554-3.124
				C50.394,41.311,51.944,41.079,52.628,40.506z"/>
			<path fill-rule="evenodd" clip-rule="evenodd" fill="#FFFFFF" d="M9.095,122.467c1.838,1.493,2.934,4.591,4.157,6.395
				c1.966,2.899,5.033,6.619,7.035,9.914c1.093,1.797,1.145,5.339,4.157,5.116c0.962-0.88-0.321-2.219-0.32-3.198
				c1.811,0.896,3.664,1.898,5.117,3.198c3.623,3.241,5.573,8.969,9.273,11.832c0.667,0.515,1.878,0.498,2.559,0.959
				c0.665,0.451,0.889,1.413,1.599,1.918c4.6,3.272,11.606,3.23,14.07,8.314c-1.218-0.275-2.119-0.866-3.837-0.64
				c-0.838,6.181,7.733,4.613,6.396,10.232c-12.732-10.186-31.662-14.172-39.652-29.1c-0.176-0.709-5.736-14.463-8.954-21.105
				C10.614,126.14,9.18,123.698,9.095,122.467z"/>
		</g>
	</g>
</g>
</svg>
