<?xml version="1.0" encoding="utf-8"?>
<!-- Generator: Adobe Illustrator 15.0.2, SVG Export Plug-In  -->
<!DOCTYPE svg PUBLIC "-//W3C//DTD SVG 1.1//EN" "http://www.w3.org/Graphics/SVG/1.1/DTD/svg11.dtd" [
	<!ENTITY ns_flows "http://ns.adobe.com/Flows/1.0/">
]>
<svg version="1.1"
	 xmlns="http://www.w3.org/2000/svg" xmlns:xlink="http://www.w3.org/1999/xlink" xmlns:a="http://ns.adobe.com/AdobeSVGViewerExtensions/3.0/"
	 x="0px" y="0px" width="118px" height="257px" viewBox="0 0 118 257" overflow="visible" enable-background="new 0 0 118 257"
	 xml:space="preserve">
<defs>
</defs>
<path fill-rule="evenodd" clip-rule="evenodd" fill="#A36D00" d="M117.778,246.148c-2.997,0.554-4.744,4.982-8.293,2.639
	c-0.244,7.184-3.143,11.099-7.539,5.277c-1.352,0.533-1.952,1.818-3.393,2.263c-2.515-1.506-3.411-4.631-4.523-7.54
	c-0.731,0.526-0.562,1.951-1.131,2.639c-2.303-1.341-4.363-2.925-5.654-5.277c-1.032,0.602-0.421,2.846-1.131,3.77
	c-1.214-0.083-1.595,0.667-3.016,0.377c-5.556-13.544-9.29-28.909-16.209-41.089c-0.208-0.836,0.72-0.536,0.754-1.131
	c-5.301-3.495-12.122-5.47-16.963-9.424c-0.714,1.171-0.714,1.171-1.131,1.885c-2.888,5.909-9.608,11.25-13.571,17.34
	c3.341,0.279,6.695,2.199,9.047,1.131c5.086-2.31,11.416-5.846,17.34-7.539c0.246,1.913,0.952,1.037,3.016,1.131
	c0.025,2.07-1.78,1.36-3.016,1.885c-4.104,1.744-9.558,3.974-12.816,5.655c-0.55,0.283,0.298,0.639-0.377,1.131
	c-1.881,1.368-3.944,0.973-4.147,4.146c-1.448,0.093-0.72-3.238-0.377-3.77c-1.932-2.467-7.739-1.057-10.555-2.64
	c-1.072,2.32-1.572,5.214-3.393,6.786c3.543-11.158,9.72-19.684,13.193-30.911c-4.467-2.282-8.515-5.135-12.062-8.67
	c-3.01-3-7.551-7.279-9.801-12.063c-1.118-2.377-1.458-5.018-2.639-7.539c-1.029-2.198-2.238-4.485-3.393-6.785
	c-2.44-4.862-3.799-10.184-6.032-14.325c-0.752-1.395-3.243-8.275-4.146-10.555c-0.392-0.988-2.517-6.748-3.016-8.67
	c-0.994-3.834-2.25-6.522-2.639-10.932c-0.497-5.635,0.231-11.54,0.754-16.586c0.985-9.504,3.731-18.041,6.785-26.01
	c0.954-2.489,1.308-5.204,2.262-7.54c1.839-4.499,5.932-8.521,6.786-13.193c1.659-9.087-5.481-13.082-4.146-22.995
	c1.284-9.535,8.859-20.422,15.832-25.256C34.03-0.116,52.1-1.784,58.972,2.63c4.479,2.876,8.893,7.801,12.44,11.309
	c2.104,2.081,1.898,3.073,2.806,3.539c2.095,1.074,7.944,2.881,9.333,3.601c1.729,0.896,4.322,2.422,5.511,4.169
	c-3.042,1.885-5.834,3.459-8.293,3.77c-1.725,0.218-6.943,1.201-9,2.25c-2.933,2.788-2.457,7.463-4.126,11.697
	c-1.61,4.083-5.837,9.224-3.393,15.079c2.11,5.054,6.854,8.031,10.932,11.686c3.458,3.099,5.105,6.713,7.54,11.309
	c0.984,1.859,2.732,3.712,3.393,5.278c2.272,5.384,2.178,11.531,4.523,17.717c1.164-0.41,2.728,13.308,3.016,19.979
	c0.375,8.708-0.724,16.793-2.262,24.879c-1.254,6.594-2.46,12.45-4.146,17.34c-1.132,3.281-0.975,7.342-1.885,10.932
	c-0.991,3.911-4.035,9.621-1.885,13.571c0.422,0.775,2.068,1.539,2.639,2.262c2.212,2.802,4.089,7.091,6.785,10.932
	c4.353,6.202,8.433,12.176,12.063,19.226c2.649,5.145,5.253,9.999,9.047,14.701C116.407,240.827,118.366,240.746,117.778,246.148z"
	/>
<path fill-rule="evenodd" clip-rule="evenodd" fill="#A36D00" d="M42.386,226.169c-0.933,0.363,0.52,1.447,0,2.639
	c-2.769-2.513-4.794,3.798-7.539,4.9c-1.532,0.15-1.16-1.604-2.262-1.885c-1.706,2.608-5.98,2.538-9.424,3.77
	c-1.996,0.714-3.811,3.325-4.9,3.393c0.365-0.022-1.464-0.983-1.131-1.131c-2.063,0.914-2.211,4.177-4.523,3.393
	c2.631-3.201,5.271-4.361,9.047-7.916c0.993-0.936,1.877-2.591,3.016-3.393c4.516-3.179,10.713-3.38,12.44-8.293
	c1.557,1.544,2.855-0.961,5.654-0.377c0.759,1.628,0.676,4.099,1.508,5.654C43.708,227.521,42.122,227.474,42.386,226.169z"/>
<path fill-rule="evenodd" clip-rule="evenodd" fill="#CC8800" d="M69.527,24.117c0.981,1.406,1.737,3.171,2.646,4.649
	c-2.547,2.943-3.842,4.959-5.285,8.921c-2.727-0.748-1.432-4.86-3.77-5.277c-3.1-0.554-2.56,4.812-6.031,5.654
	c0.013-4.824,0.987-8.232-3.016-8.293c-1.421-0.021-2.232,2.14-4.146,2.262c-3.269,0.208-5.958-3.388-5.278-6.786
	c0.374-1.866,2.333-2.063,3.77-3.393c2.392-2.213,4.62-5.729,6.408-8.293c7.464-3.545,16.853-2.018,16.586,6.408
	C71.354,21.788,70.74,22.796,69.527,24.117z"/>
<path fill-rule="evenodd" clip-rule="evenodd" fill="#CC8800" d="M73.707,19.417c3.563,1.126,9.417,2.614,9.978,4.437
	c-2.214,0.807-7.25-0.604-11.142-0.49C72.831,22.332,73.785,20.905,73.707,19.417z"/>
<path fill-rule="evenodd" clip-rule="evenodd" fill="#CC8800" d="M72.452,24.768c2.979,1.262,7.276,0.522,11.795,1.001
	c-2.688,1.271-7.604,2.207-9.91,2.768C73.405,27.585,72.459,26.646,72.452,24.768z"/>
<path fill-rule="evenodd" clip-rule="evenodd" fill="#CC8800" d="M71.035,173.394c-8.052,0.734-11.596-6.364-16.963-9.801
	c-5.298-3.393-10.555-6.064-15.456-9.801c1.643,3.417,6.11,4.609,9.424,7.163c4.635,3.57,7.712,9.42,12.062,12.816
	c0.566,0.442,1.275,0,1.885,0.377c3.684,2.276,7.039,5.731,10.178,8.671c-0.803,0.955-2.415,1.104-2.262,3.016
	c-12.458-10.583-24.938-24.157-35.058-34.681c1.187-0.911,2.394,0.676,3.77,0.754c1.682-1.71,1.532-5.253,3.016-7.162
	c7.869,7.712,15.283,15.879,23.749,22.995C65.444,169.33,68.92,171.363,71.035,173.394z"/>
<path fill-rule="evenodd" clip-rule="evenodd" fill="#CC8800" d="M35.978,153.792c9.887,11.577,21.393,21.652,32.042,32.796
	c0.555,0.58,1.913,0.345,1.508,1.885c-2.663-0.643-2.602-2.676-1.885,1.131c-4.613,1.479-5.471-3.064-7.54-5.277
	c-2.613-0.382-4.638-2.334-7.162-4.147c-11.274-8.101-17.625-22.817-28.272-31.665c1.275-0.206,2.148-3.575,2.639-2.639
	C31.103,147.234,36.187,153.793,35.978,153.792z"/>
<path fill-rule="evenodd" clip-rule="evenodd" fill="#CC8800" d="M25.799,152.661c3.708,1.789,5.372,6.052,7.917,9.424
	c1.94,2.57,4.788,4.355,6.785,6.785c1.159,1.409,1.644,3.261,2.639,4.523c2.383,3.022,5.808,6.002,9.047,8.293
	c2.593,1.835,5.661,3.909,7.539,7.163c-8.036-1.224-11.464-5.575-15.833-10.933c-2.506-3.072-5.556-5.378-7.916-8.293
	c-2.258-2.789-5.976-5.394-9.424-6.785c-0.096,2.068,0.806,2.556,1.131,4.9c-2.542-0.976-2.453-4.583-4.523-6.031
	c1.054-1.563,2.071,0.077,3.393-0.754C25.608,157.983,26.989,154.801,25.799,152.661z"/>
<path fill-rule="evenodd" clip-rule="evenodd" fill="#CC8800" d="M48.417,103.656c1.849,4.794,5.156,9.463,7.916,2.262
	c5.978,3.652,3.374,13.94,3.016,21.487c-5.07-5.233-8.553-12.054-13.194-17.717C47.933,108.701,47.146,105.149,48.417,103.656z"/>
<path fill-rule="evenodd" clip-rule="evenodd" fill="#CC8800" d="M61.611,122.127c1.569,0.567,1.938,2.334,3.393,3.016
	c1.458,0.194,1.487-2.172,2.639-1.131c0.656,3.961-1.141,8.632-1.885,12.439C62.376,133.047,58.925,128.698,61.611,122.127z"/>
<path fill-rule="evenodd" clip-rule="evenodd" fill="#CC8800" d="M55.203,124.766c8.327,10.019,15.546,21.145,21.487,33.55
	c-8.801-0.84-13.86-12.348-20.356-17.717c-1.894-1.566-6.371-3.098-6.785-4.901C48.836,132.6,53.341,126.275,55.203,124.766z"/>
<path fill-rule="evenodd" clip-rule="evenodd" fill="#CC8800" d="M42.386,130.043c8.412,9.18,18.812,16.372,26.388,26.388
	c-3.532,0.596-6.683-6.47-10.932-7.917c0.128,11.81,11.396,15.746,16.209,24.125c-5.556-5.617-13.074-10.814-18.848-16.963
	c-3.085-3.286-5.55-6.121-9.047-9.047c-3.1-2.594-6.237-5.824-8.293-9.424c1.17,0.039,1.076-1.186,2.639-0.754
	C40.101,133.288,41.465,131.887,42.386,130.043z"/>
<path fill-rule="evenodd" clip-rule="evenodd" fill="#CC8800" d="M68.02,131.174c1.433-0.302,0.479,1.782,0.754,2.639
	c2.781,0.705,3.64-3.777,7.162-1.508c-1.347,4.685-3.319,8.744-3.77,14.325C68.198,142.685,66.147,138.545,68.02,131.174z"/>
<path fill-rule="evenodd" clip-rule="evenodd" fill="#CC8800" d="M73.297,164.347c-0.707,0.424-0.801,1.461-1.508,1.885
	c-5.186-3.861-9.199-8.895-12.063-15.079c2.156,3.225,7.651,5.855,10.555,9.047c1.332,1.464,2.003,2.044,3.393,2.262
	c-0.717,1.251-0.38,1.53-0.071,1.725c1.24-0.896,1.595-2.583,2.479-3.835c-0.507-1.077-1.109,0.852-2.03,0.603
	c-0.364-1.019-1.057-1.708-1.885-2.262c1.735-1.094,3.381,1.132,6.031,0.377c-1.066-5.389,2.692-10.427,4.524-16.209
	c0.692-2.188,1.658-7.598,1.885-9.047c1.071,1.316,1.782,2.993,4.523,2.639c-0.804,13.43-6.652,24.987-10.932,36.188
	c-2.86-0.784-3.65-3.638-6.031-4.9C72.766,166.13,73.624,166,73.297,164.347z"/>
<path fill-rule="evenodd" clip-rule="evenodd" fill="#CC8800" d="M75.559,138.336c0.778-0.507-0.07,3.826,1.131,4.147
	c1.524-0.487,2.647-1.374,3.393-2.639c3.497,4.058-2.74,9.248-2.639,14.701C72.61,151.165,72.246,143.867,75.559,138.336z"/>
<path fill-rule="evenodd" clip-rule="evenodd" fill="#CC8800" d="M85.737,90.462c6.406,17.508,8.499,38.905,4.146,59.937
	c-2.549,12.32-5.885,25.206-9.801,36.943c-1.147,0.142-0.64-1.371-1.508-1.508c-2.1,1.166-2.377,4.156-3.393,6.408
	c-0.921-2.21,2.625-7.688-0.754-9.047c4.15-9.585,10.412-21.851,13.571-32.796c0.492-1.707,0.285-3.716,0.754-5.277
	c0.974-3.24,3.823-7.979,0-10.932c-1.36-1.05-3.001-0.083-3.393-1.508c-0.085-1.423,0.396-3.411-0.754-3.77
	c-1.566,2.707-1.31,7.234-2.639,10.178c-1.147,0.017-1.466-0.796-2.262-1.131c-0.595,0.662-1.731,0.782-1.885,1.885
	c-3.016-4,1.754-13.331,1.508-16.963c-1.993,1.902-1.964,5.827-3.77,7.916c-0.861,0.75-1.904-0.603-2.639-1.131
	c-1.737,0.147-1.776,1.994-3.393,2.262c-0.007-2.255-1.251-3.272-0.754-6.031c0.438-0.316,1.011-0.497,1.885-0.377
	c-1.62-4.93-6.886-1.958-9.424-5.277c0.641-3.254,0.293-7.498,0.377-11.309c2.594-0.296,3.438-2.342,4.524-4.146
	c5.782,2.322,6.148,1.91,7.916-4.147c1.179-4.038,3.326-6.695,5.654-8.293c2.02,1.036,2.89,0.302,5.278,0
	C85.543,92.028,85.528,91.133,85.737,90.462z"/>
<path fill-rule="evenodd" clip-rule="evenodd" fill="#CC8800" d="M17.883,151.53c0.293,0.335-0.856-0.41-0.754-0.377
	c-1.634-0.534-6.977-9.86-7.54-10.932c-2.149-4.096-3.326-7.028-4.146-10.932c0.036,0.171-0.826-1.076-1.131-3.016
	c-0.76-4.84,0.646-10.954,3.77-13.571c1.23,3.132,4.298,12.115,7.54,5.277c2.511,0.642,2.736,3.454,5.277,2.639
	c2.497-0.801,1.632-6.219,3.77-7.917c9.21,0.687,5.278-16.743,10.555-20.356c3.71-2.54,5.19,7.413,6.785,10.932
	c0.614,1.355,1.758,2.543,2.262,3.77c0.215,0.521-0.258,1.387,0,1.885c3.218,6.203,8.333,9.138,10.555,15.079
	c-4.236,1.167-4.634,6.172-6.785,9.424c-2.688-2.464-5.096-5.208-6.786-8.67c-1.781,0.681,0.793,1.435,0,3.393
	c-1.141,1.247-1.957,2.818-1.508,5.654c-1.18-0.175-1.683,0.328-1.508,1.508c-4.601,0.293-4.724-5.356-7.916-5.277
	c2.375,5.039,6.305,8.522,9.424,12.817c-0.885,2.131-1.095,4.936-1.508,7.539c-2.029-0.484-2.632-2.394-4.523-3.016
	c-0.721,0.159-1.623,0.137-1.508,1.131c-2.272-1.498-2.734-4.805-6.032-5.277c-0.887,0.747-0.642,2.625-1.131,3.77
	c-2.669-1.729-4.993-3.802-6.785-6.408c-0.145,3.116,4.883,7.03,7.162,10.178c-1.217,1.259-0.267,7.178-0.754,9.047
	C20.617,158.849,20.285,154.155,17.883,151.53z"/>
<path fill-rule="evenodd" clip-rule="evenodd" fill="#CC8800" d="M55.58,166.986c5.671,4.507,11.187,9.169,19.225,11.309
	c-0.227,1.406-1.418,1.85-1.508,3.393C67.887,176.291,59.917,173.456,55.58,166.986z"/>
<path fill-rule="evenodd" clip-rule="evenodd" fill="#CC8800" d="M74.051,185.458c0.958,3.099-1.216,6.319-0.754,10.178
	c2.871-1.276,3.151-5.143,4.9-7.539c0.425,1.064,1.66,0.733,2.639,0.377c0.172,4.724-1.165,9.854-4.146,10.178
	c-0.496,1.766-0.711,3.812-3.393,3.393C72.401,196.301,68.949,188.875,74.051,185.458z"/>
<path fill-rule="evenodd" clip-rule="evenodd" fill="#CC8800" d="M68.396,189.604c1.391,5.796,3.145,10.472,4.146,15.832
	c0.95-0.809,2.582-0.936,3.016-2.262c1.491,0.564,2.218,1.539,4.146,0.754c1.939,4.477,6.685,10.17,9.424,16.964
	c1.615,4.004,5.437,8.254,6.031,10.932c1.135,5.107-3.699,6.448-7.539,7.916c-3.266-8.101-5.32-15.75-9.424-22.995
	c-0.903-1.593-2.258-3.987-3.77-6.031c-1.894-2.561-3.172-3.402-3.77-7.162c-2.819-1.327-5.696-2.597-6.786-5.654
	c1.759,0,3.519,0,5.278,0c-0.059-3.586-3.021-4.267-4.147-6.785C66.585,191.06,67.583,190.424,68.396,189.604z"/>
<path fill-rule="evenodd" clip-rule="evenodd" fill="#CC8800" d="M104.962,228.808c1.523,2.192,3.413,3.078,3.77,5.654
	c-0.962-0.89-1.094-1.386-1.952-2.368c-0.442,3.131,3.431,3.742,4.591,6.515c-1.804,2.964-4.742,5.872-7.539,4.9
	c-2.74-0.951-3.633-4.719-6.032-6.785c-0.323-1.203,0.593-1.166,0.754-1.885c-4.034-7.935-9.698-17.077-14.701-24.88
	c-3.507-5.469-4.322-10.274-1.885-18.471c1.993,2.455,2.738,4.848,4.147,8.293c4.806,11.751,13.72,20.77,19.225,32.042
	C107.16,231.103,104.782,230.153,104.962,228.808z"/>
<path fill-rule="evenodd" clip-rule="evenodd" fill="#CC8800" d="M89.129,200.913c5.403,6.408,8.81,14.813,13.194,22.241
	C98.156,218.314,92.542,208.962,89.129,200.913z"/>
<path fill-rule="evenodd" clip-rule="evenodd" fill="#CC8800" d="M69.15,210.713c1.612,0.703,0.966-0.559,1.885-2.262
	c4.426,4.751,9.854,14.503,12.44,22.618c1.318,4.138,1.025,11.897,7.916,10.555c0,2.388,0,4.775,0,7.162
	c-2.303-0.964-2.851-3.683-5.277-4.523c-1.162,1.1-0.842,3.683-2.639,4.146C79.555,237.93,74.329,222.428,69.15,210.713z"/>
<path fill-rule="evenodd" clip-rule="evenodd" fill="#CC8800" d="M96.292,238.609c0.79,1.11,2.121,1.694,3.016,3.016
	c1.209,1.786,1.626,4.748,3.393,5.277c5.107,1.53,8.165-4.615,11.686-6.785c4.665,3.345-1.97,10.229-4.9,6.031
	c-2.308,1.462-2.204,5.336-2.639,8.671c-2.936,0.296-3.36-1.918-5.277-2.64c-1.762,0.124-1.631,2.139-3.393,2.263
	c-2.443-3.589-2.8-9.264-4.146-13.948C95.018,240.099,95.598,239.297,96.292,238.609z"/>
<path fill-rule="evenodd" clip-rule="evenodd" fill="#CC8800" d="M60.103,213.729c-3.892,3.021-10.064,5.768-14.325,7.163
	c-0.964-1.653,1.271-1.627,2.262-2.263C51.206,216.601,55.268,214.46,60.103,213.729z"/>
<path fill-rule="evenodd" clip-rule="evenodd" fill="#CC8800" d="M17.506,237.855c6.582-7.201,15.306-11.746,24.502-15.455
	c0.583,0.548,0.332,1.93,0.377,3.016c-0.768-0.757-1.004-0.099-1.508,0.377c-1.203,0.323-1.166-0.594-1.885-0.754
	c-3.005,3.072-5.808,6.166-8.67,7.916C26.659,235.195,21.737,234.666,17.506,237.855z"/>
<path fill-rule="evenodd" clip-rule="evenodd" fill="#CC8800" d="M39.747,226.923c-1.195,1.82-2.808,3.223-4.146,4.9
	C34.158,230.174,38.248,228.086,39.747,226.923z"/>
<path fill-rule="evenodd" clip-rule="evenodd" fill="#CC8800" d="M37.485,212.598c1.114-5.672,5.701-11.135,7.539-17.34
	c1.143,0.742,2.25,1.519,3.393,2.262C45.333,202.817,42.629,207.359,37.485,212.598z"/>
<path fill-rule="evenodd" clip-rule="evenodd" fill="#FFCF40" d="M55.58,31.656c1.02,3.593-1.999,8.062,1.508,8.67
	c3.562,0.618,2.758-5.119,6.031-6.408c-1.315,3.105,0.334,7.801,3.393,5.277c0.152,2.043-3.071,3.962-3.77,6.408
	c-3.344-0.84-4.518,2.549-6.408,3.77c-1.318,0.851-3.437,0.472-4.9,1.508c-2.973,2.104-3.983,13.303-7.917,5.654
	c-2.405-0.496-3.325,1.279-4.9,1.131c-3.849-0.363-5.588-6.135-7.916-6.408c-4.8-0.563-5.042,7.387-10.178,7.916
	c0.154-2.039-0.379-3.39-1.508-4.146c-1.725-0.366-3.177,2.529-4.146,4.146c0.018-2.674,3.338-5.58,3.77-8.293
	c0.823-5.176-2.331-8.774-2.639-14.325c-0.189-3.411-0.069-8.072,1.131-11.686c1.839-5.538,5.478-9.977,8.293-14.325
	c1.168-1.804,1.204-3.682,2.639-4.9c0.498-0.422,4.692-2.746,5.655-3.016c3.223-0.905,9.948-0.623,13.194-0.754
	c8.355-0.339,14.405,3.175,18.471,8.67c-4.8-0.777-9.572-0.13-12.817,3.77c-1.019,1.224-1.309,3.027-2.262,4.146
	c-1.905,2.237-4.779,3.505-6.409,5.277c-0.185,0.202-1.823,1.711-1.885,2.639c-0.145,2.177,4.141,7.856,7.163,7.917
	C51.854,34.349,52.276,30.587,55.58,31.656z"/>
<path fill-rule="evenodd" clip-rule="evenodd" fill="#FFCF40" d="M62.04,47.75c0.836,0.983-0.545,2.39-0.429,3.885
	c0.971,7.135,3.862,13.619,7.917,17.34c2.084,1.913,6.485,3.109,8.67,5.654c0.991,1.155,1.803,4.1,3.016,6.408
	c1.316,2.506,3.976,5.505,1.885,9.801c-8.228-1.494-9.474,7.058-10.932,13.571c-2.225,0.214-3.283-0.738-4.523-1.508
	c-3.621,1.28-3.556,4.119-7.163,3.77c-1.933-0.188-2.681-2.476-4.523-2.262c-2.161,0.25-1.446,2.738-3.77,3.016
	c-0.999-2.395-0.961-5.824-4.9-5.278c-1.213,0.421-0.295,2.972-1.508,3.393c-2.781-3.665-3.915-19.347-10.932-14.325
	c-4.363,3.123-4.824,13.131-6.409,19.602c-6.587-1.702-5.467,3.367-7.916,7.916c-1.512-0.75-1.955-2.568-3.393-3.393
	c-2.524,0.366-2.291,3.489-5.277,3.393c-0.261-3.509-1.564-5.975-3.393-7.916c-3.936,2.489-4.924,5.614-4.9,12.063
	c-2.311-4.283-2.871-11.634-2.262-18.848c1.595-18.883,7.78-37.946,17.34-47.498c0.795,10.183,8.428-0.049,10.555-3.016
	c4.652,1.686,7.704,7.952,13.948,5.654c3.8,6.159,7.082-3.316,8.67-6.408c3.795,0.818,4.356-2.881,6.547-3.683
	C59.406,48.699,61.234,48.425,62.04,47.75z"/>
<path fill-rule="evenodd" clip-rule="evenodd" fill="#FFCF40" d="M10.721,144.368c2.167,1.76,3.458,5.413,4.9,7.539
	c2.317,3.417,5.933,7.802,8.293,11.686c1.288,2.119,1.35,6.294,4.9,6.031c1.134-1.037-0.378-2.615-0.377-3.77
	c2.134,1.056,4.319,2.237,6.032,3.77c4.27,3.821,6.569,10.573,10.932,13.948c0.786,0.607,2.214,0.587,3.016,1.131
	c0.784,0.531,1.048,1.666,1.885,2.262c5.422,3.857,13.681,3.808,16.586,9.801c-1.436-0.324-2.498-1.021-4.524-0.754
	c-0.987,7.286,9.116,5.438,7.54,12.062c-15.009-12.007-37.325-16.706-46.744-34.304c-0.208-0.836-6.762-17.05-10.555-24.879
	C12.512,148.699,10.822,145.819,10.721,144.368z"/>
</svg>
